<svg width="114" height="48" viewBox="0 0 114 48" fill="none" xmlns="http://www.w3.org/2000/svg">
<path d="M28.8683 9.56724C27.6301 8.28859 25.7429 7.74607 24.0069 8.112C23.0835 8.30774 22.2091 8.7609 21.5474 9.43746C18.1434 12.85 14.7308 16.252 11.3246 19.6603L11.3101 19.6742C10.6594 20.2995 9.99208 20.9408 9.60984 21.7729C8.63756 23.6664 9.06519 26.1748 10.6077 27.6449C14.2308 31.2553 17.8434 34.8764 21.4602 38.4911C22.4219 39.474 23.8048 40.0187 25.1749 39.9995C26.7131 40.0187 28.1385 39.2591 29.1704 38.1571C32.4383 34.8062 35.7466 31.5 39.0698 28.2066C39.7038 27.5577 40.3825 26.9045 40.7251 26.045C41.5378 24.0877 41.1016 21.6602 39.523 20.207C35.9658 16.6668 32.4234 13.1096 28.8683 9.56724Z" fill="#F7C443"/>
<path d="M25.243 11.8352C26.3046 11.6608 27.4131 12.6182 27.2556 13.7202C27.2982 14.3308 26.8642 14.8116 26.4599 15.2116C23.5814 18.0732 20.722 20.9538 17.8413 23.8154C17.5456 24.06 17.4222 24.4239 17.3839 24.794C19.8135 27.179 22.1325 29.6831 24.6664 31.9575C25.1515 31.7532 25.5621 31.4128 25.9132 31.0256C28.2832 28.5832 30.781 26.2663 33.0808 23.7601C32.2468 22.9601 31.4384 22.1346 30.615 21.3219C30.1087 21.7836 29.664 22.3218 29.0938 22.7091C28.1875 23.309 26.8216 22.792 26.511 21.7602C26.211 21.0751 26.4855 20.2794 27.0067 19.7858C27.6833 19.1199 28.3279 18.4199 29.0428 17.7944C30.0512 16.9753 31.6341 17.137 32.5085 18.0774C33.817 19.4007 35.1531 20.6943 36.4466 22.0325C37.3529 22.9899 37.387 24.6451 36.4275 25.5791C33.1851 28.864 29.8831 32.0936 26.6514 35.3892C26.0004 36.0232 25.0175 36.3763 24.1239 36.1019C23.4963 35.9551 23.0006 35.5147 22.5602 35.07C19.6667 32.1383 16.7265 29.2555 13.833 26.3259C12.8373 25.3472 12.8905 23.5877 13.9075 22.641C17.2626 19.2561 20.6518 15.9052 24.0111 12.5224C24.3452 12.182 24.7579 11.8905 25.243 11.8352Z" fill="black"/>
<path d="M74.3296 12.799C74.4381 11.7203 76.3465 11.7693 76.3976 12.85C76.4316 14.784 76.3997 16.7179 76.4082 18.6497C78.3421 18.6476 80.2739 18.6454 82.2079 18.6497C83.1993 18.6923 84.312 18.8029 85.0396 19.5603C85.8757 20.5198 85.6481 21.8921 85.68 23.0665C85.6204 24.3047 85.8949 25.6536 85.2673 26.7897C84.6567 27.7662 83.4121 27.9555 82.3547 28.0109C80.8845 28.03 79.4144 28.0172 77.9443 28.0151C76.9486 27.9832 75.8593 27.8875 75.0657 27.2194C74.3743 26.6109 74.3062 25.6216 74.3083 24.7621C74.3275 20.7751 74.2785 16.786 74.3296 12.799ZM76.4103 20.5985C76.4146 22.1389 76.404 23.6771 76.4103 25.2174C76.3891 25.4685 76.4912 25.8238 76.7656 25.9003C77.7698 26.1812 78.823 26.0471 79.8527 26.0748C81.0824 26.0408 82.3334 26.1961 83.5397 25.8876C83.678 24.2281 83.6631 22.5473 83.5482 20.8879C83.1653 20.7198 82.7632 20.59 82.3419 20.6007C80.3654 20.59 78.3868 20.5985 76.4103 20.5985Z" fill="black"/>
<path fill-rule="evenodd" clip-rule="evenodd" d="M87.9699 17.9464C88.5155 17.9464 88.9578 17.5041 88.9578 16.9585C88.9578 16.4129 88.5155 15.9706 87.9699 15.9706C87.4243 15.9706 86.982 16.4129 86.982 16.9585C86.982 17.5041 87.4243 17.9464 87.9699 17.9464ZM87.9779 18.4153C87.4379 18.4153 87.0001 18.8531 87.0001 19.3931V27.0312C87.0001 27.5712 87.4379 28.0089 87.9779 28.0089C88.5179 28.0089 88.9557 27.5712 88.9557 27.0312V19.3931C88.9557 18.8531 88.5179 18.4153 87.9779 18.4153Z" fill="black"/>
<path d="M90.7882 12.1033C91.1669 12.0012 91.6286 11.9735 91.9647 12.2118C92.3838 12.5884 92.2711 13.2054 92.3009 13.7096C92.2775 18.1796 92.3285 22.6516 92.2753 27.1195C92.303 28.2854 90.2754 28.3194 90.2925 27.1365C90.2457 22.5878 90.2925 18.0391 90.2691 13.4883C90.2669 12.9969 90.2435 12.3331 90.7882 12.1033Z" fill="black"/>
<path d="M47.3694 18.6667C49.1204 18.5029 50.9522 18.3987 52.6436 18.9816C53.418 18.8986 54.1648 18.5199 54.969 18.5646C56.3881 18.6008 57.905 18.3795 59.2262 19.022C60.09 19.4348 60.4134 20.4517 60.4219 21.3432C60.4261 23.258 60.4368 25.1749 60.4176 27.0897C60.4176 28.0407 59.0496 28.313 58.4986 27.6556C58.2624 27.3833 58.322 27.0109 58.3092 26.6812C58.3156 25.0472 58.3156 23.4154 58.3135 21.7815C58.2858 21.3687 58.3816 20.7666 57.8625 20.6241C56.7093 20.4092 55.5073 20.4198 54.3499 20.6028C53.9478 20.6049 53.7755 21.0496 53.7903 21.3942C53.7542 23.3729 53.8244 25.3557 53.7627 27.3322C53.4797 28.2343 52.0075 28.2343 51.7181 27.3471C51.6522 25.4366 51.7224 23.5218 51.6905 21.6113C51.6649 21.2581 51.6883 20.756 51.2692 20.6326C50.1076 20.4113 48.8991 20.4177 47.7311 20.5964C47.4439 20.6177 47.1801 20.873 47.1971 21.1687C47.1078 23.2197 47.229 25.277 47.1418 27.3258C46.9014 28.2832 45.2355 28.2343 45.0823 27.2577C45.0419 25.5089 45.0823 23.7579 45.0653 22.0091C45.0589 21.2474 45.027 20.422 45.461 19.756C45.861 19.0922 46.6333 18.7774 47.3694 18.6667Z" fill="black"/>
<path d="M64.8152 18.6688C66.43 18.622 68.0491 18.6582 69.666 18.6497C70.6043 18.688 71.6659 18.7943 72.3467 19.5241C72.8701 20.0602 72.9914 20.8474 72.9743 21.5686C72.9616 22.9111 72.9871 24.2536 72.9637 25.5961C72.9467 26.4386 72.502 27.3151 71.6872 27.6406C70.3787 28.2023 68.9171 27.9683 67.5321 28.0193C66.0747 27.9661 64.5514 28.2002 63.1558 27.6768C62.3154 27.3662 61.792 26.5067 61.7601 25.6301C61.7027 24.3472 61.758 23.0622 61.7324 21.7793C61.7197 20.9687 61.8324 20.0645 62.4367 19.4645C63.06 18.8475 63.9791 18.7305 64.8152 18.6688ZM64.0302 20.8495C63.7919 21.1878 63.8706 21.6155 63.8557 22.0027C63.8706 23.1388 63.8387 24.277 63.8642 25.4152C63.8536 25.6833 64.0897 25.9386 64.3578 25.9641C65.262 26.1535 66.1896 26.0535 67.1066 26.0748C68.3278 26.0429 69.5703 26.1939 70.7681 25.879C70.9064 24.1898 70.8872 22.4835 70.783 20.7942C70.3553 20.6432 69.9043 20.5815 69.4533 20.5942C68.0406 20.6006 66.63 20.59 65.2173 20.5964C64.8152 20.6261 64.3621 20.5772 64.0302 20.8495Z" fill="black"/>
<path fill-rule="evenodd" clip-rule="evenodd" d="M97.0729 18.654C95.99 18.7008 94.7049 18.8242 94.0305 19.7901C93.5283 20.5649 93.5494 21.4831 93.57 22.3825C93.5769 22.6834 93.5838 22.9822 93.571 23.2729C93.5785 23.5216 93.5726 23.7816 93.5667 24.0458C93.5424 25.1286 93.5165 26.2836 94.4007 27.0344C95.774 28.1402 97.5982 28.0888 99.2678 28.0221C99.2721 28.0222 99.2763 28.0222 99.2805 28.0222C99.8191 28.0222 100.256 27.5856 100.256 27.0471C100.256 26.9073 100.226 26.7744 100.173 26.6542C100.174 26.644 100.174 26.6338 100.175 26.6238C100.165 26.6146 100.155 26.6051 100.145 26.5953C100.058 26.4296 99.9251 26.292 99.7629 26.1995C99.6608 26.1201 99.5452 26.0682 99.4043 26.0792C99.4015 26.0791 99.3988 26.0789 99.396 26.0788C99.3581 26.0743 99.3196 26.072 99.2805 26.072C99.272 26.072 99.2634 26.0721 99.2549 26.0723C98.9819 26.0622 98.7064 26.0651 98.4307 26.068C97.64 26.0762 96.8475 26.0844 96.1049 25.7876C95.6742 25.6346 95.6868 25.2125 95.6988 24.8163C95.7029 24.6782 95.707 24.5432 95.6921 24.4239C96.3006 24.4244 96.909 24.425 97.5175 24.4257C99.6472 24.4281 101.777 24.4305 103.907 24.4239C104.428 24.4877 104.951 24.0452 104.892 23.5048C104.886 23.1662 104.892 22.8263 104.899 22.4863C104.914 21.7347 104.93 20.9824 104.806 20.2412C104.566 19.1348 103.368 18.6944 102.356 18.6689C101.138 18.6366 99.9211 18.6428 98.7046 18.6491C98.1605 18.6519 97.6166 18.6547 97.0729 18.654ZM95.7053 21.8388C95.6709 21.3075 95.6341 20.7371 96.2517 20.6539C98.4154 20.5475 100.592 20.5731 102.76 20.6475C102.802 21.1482 102.805 21.6505 102.807 22.153C102.808 22.2334 102.808 22.3138 102.809 22.3942C102.019 22.3949 101.23 22.394 100.441 22.393C98.8623 22.3912 97.2842 22.3893 95.707 22.4006C95.7311 22.2385 95.7184 22.0415 95.7053 21.8388Z" fill="black"/>
</svg>
